<svg width="80" height="29" viewBox="0 0 80 29" fill="none" xmlns="http://www.w3.org/2000/svg">
<g clip-path="url(#clip0_3_8)">
<path d="M5.24626 20.4214C5.30995 20.4344 5.37365 20.4402 5.43604 20.4402C5.86892 20.4402 6.25629 20.1368 6.34794 19.6959C6.45193 19.1906 6.12825 18.697 5.62388 18.5922C4.93167 18.4489 4.16992 18.2744 3.51157 18.1083C4.07508 17.8075 4.70619 17.4728 5.28012 17.1687C5.31717 17.1491 5.34966 17.1316 5.38606 17.112C5.57585 17.6597 6.08997 18.0549 6.70092 18.0549C7.47307 18.0549 8.09833 17.4278 8.09833 16.6549C8.09833 16.3397 7.99043 16.0519 7.8156 15.8181C8.83992 15.2672 9.54189 14.8771 9.83373 14.6824C10.7736 14.054 18.0738 10.5955 20.6262 10.2401C20.8999 10.2023 21.143 10.0447 21.2886 9.80899C21.4192 9.59866 24.5014 4.62614 25.6862 1.24186C25.8572 0.755413 25.6011 0.222742 25.1156 0.0521363C24.6307 -0.11847 24.0984 0.13744 23.9281 0.623882C22.9843 3.3185 20.6439 7.27641 19.9218 8.46935C16.7018 9.13617 9.83641 12.4358 8.79897 13.1286C8.34921 13.4288 6.16403 14.5873 4.40713 15.5178C1.71761 16.9433 0.957876 17.3549 0.735579 17.5326C0.454148 17.7586 0.305313 18.1805 0.389157 18.5315C0.524999 19.0916 0.61275 19.4608 5.24623 20.4213L5.24626 20.4214Z" fill="black"/>
<path d="M79.9983 11.1075C80.0146 9.95428 79.5258 9.43533 79.1137 9.20278C78.0601 8.60889 75.5858 9.22622 68.5181 11.8486C67.7615 12.1292 67.1525 12.3558 66.7924 12.4756C65.1675 13.0187 61.722 13.6615 59.3933 13.078C58.6621 12.895 57.1723 12.5629 55.4272 12.1833C56.059 11.4305 56.6712 10.7298 57.0476 10.3397C57.8509 10.9407 58.6633 11.5548 59.4569 12.1591C59.6259 12.2874 59.8234 12.3499 60.0204 12.3499C60.3018 12.3499 60.5794 12.2229 60.7626 11.9813C61.074 11.5704 60.9947 10.985 60.5852 10.6731C50.98 3.35622 50.2261 3.2807 49.9414 3.25203C49.5833 3.21816 48.8456 3.14002 40.0191 9.25341C39.1072 9.07498 37.9406 8.91805 36.6601 8.78065C37.0058 8.14314 37.5726 7.1162 38.0243 6.38226C38.2947 5.94336 38.1582 5.36837 37.7201 5.09747C37.2821 4.82592 36.7082 4.96267 36.4378 5.40222C35.7118 6.58088 34.7401 8.41141 34.6992 8.48826C34.6823 8.52082 34.6823 8.55599 34.6693 8.5892C34.332 8.5599 33.992 8.53189 33.6508 8.5052C34.098 7.34868 34.9832 5.14376 35.6144 4.12986C35.8867 3.69291 35.7535 3.11661 35.3167 2.84376C34.8806 2.57092 34.3047 2.70441 34.033 3.14201C33.19 4.49649 32.037 7.49268 31.7094 8.36321C31.1959 8.3287 30.6896 8.29679 30.1976 8.26749C30.8801 6.7131 32.1806 3.69744 32.6051 2.36246C32.7617 1.87082 32.4907 1.34595 32.0006 1.18966C31.5105 1.03272 30.986 1.30427 30.83 1.79527C30.3673 3.25068 28.6949 7.05881 28.2087 8.1574C27.7226 8.13265 27.265 8.11051 26.8497 8.09163C27.6069 6.27938 28.9036 3.02146 29.1635 1.36875C29.2434 0.859513 28.897 0.381537 28.3881 0.301452C27.8811 0.223309 27.4027 0.569097 27.3228 1.07833C27.0823 2.60341 25.6491 6.1635 24.8621 8.00826C24.6177 7.99914 24.4584 7.99393 24.411 7.99198C23.8982 7.98091 23.466 8.37878 23.4491 8.89388C23.4315 9.40897 23.8351 9.84072 24.3493 9.85764C24.3681 9.85829 24.6931 9.86936 25.2352 9.89085C25.306 9.90778 25.3769 9.93578 25.4477 9.93578C25.514 9.93578 25.5783 9.92146 25.6427 9.90778C28.7761 10.0393 36.7706 10.4346 40.0191 11.1581C40.2732 11.2154 40.5384 11.1633 40.7515 11.0142C44.451 8.4459 48.6642 5.68093 49.7925 5.16781C49.9192 5.23814 50.0928 5.34623 50.2968 5.47778C48.4894 6.94687 46.1364 9.29183 45.3857 10.0505C45.3473 10.0427 45.3181 10.0362 45.3025 10.0329C44.7936 9.92743 44.3048 10.2517 44.2008 10.7571C44.0962 11.2617 44.4192 11.756 44.9236 11.8608C45.0393 11.8849 56.5033 14.276 58.9419 14.8868C61.5034 15.5276 64.997 14.9578 66.9876 14.3626C67.4264 15.1252 68.4136 17.2787 67.3497 19.7147C64.6901 18.538 62.9417 17.8745 62.1954 17.8745C61.069 17.8745 54.7242 18.1642 52.4948 18.9372C50.5916 19.5975 47.0493 20.0559 47.0137 20.0599C46.5035 20.1256 46.1421 20.5932 46.2078 21.1044C46.2689 21.5849 46.6913 21.9209 47.1613 21.906C47.1847 21.9392 47.1957 21.9783 47.2243 22.0095C47.5597 22.3722 49.2606 24.2014 49.8514 24.6248C50.0159 24.742 50.205 24.7987 50.3922 24.7987C50.6827 24.7987 50.9694 24.6626 51.1514 24.4073C51.4503 23.9873 51.3528 23.4045 50.9343 23.1049C50.7237 22.9545 50.0744 22.3065 49.3835 21.5824C50.5807 21.3721 52.0412 21.0699 53.1044 20.7007C54.8898 20.0814 60.6212 19.7415 62.1908 19.7415C63.1592 19.7825 68.7826 22.4074 70.6306 23.2696C71.2064 23.5386 71.6562 23.7489 71.911 23.8622C72.5661 24.1533 74.8586 24.8768 76.6933 24.8768C77.3283 24.8768 77.9088 24.7902 78.3468 24.5688C78.8258 24.3265 79.1489 23.928 79.2561 23.4454C79.5648 22.0519 77.7885 19.227 76.5698 17.4974C78.6821 15.8551 79.9736 12.8467 79.9977 11.1073L79.9983 11.1075ZM53.3727 11.7412C52.7877 11.6155 52.1963 11.4898 51.6133 11.3654C52.7566 10.065 53.8888 8.83685 54.399 8.37841C54.7695 8.64995 55.1497 8.92997 55.539 9.2178C55.0574 9.72312 54.371 10.5182 53.3726 11.7412L53.3727 11.7412ZM51.9109 6.58431C52.2112 6.79659 52.5297 7.02256 52.869 7.26677C52.2398 7.86782 51.2174 8.95599 49.5249 10.9226C48.8138 10.7722 48.1522 10.6328 47.5711 10.511C48.741 9.35843 50.6019 7.57937 51.9109 6.58431H51.9109ZM77.4351 22.9384C76.7435 23.2086 74.0813 22.7847 72.6688 22.1563C72.4206 22.0456 71.9805 21.8399 71.4183 21.5774C70.5675 21.1802 69.7921 20.8233 69.0511 20.4847C69.1031 20.3668 69.144 20.2509 69.1895 20.1344C70.5135 20.4958 72.6804 21.1222 73.5241 21.5201C73.6522 21.5807 73.7874 21.6087 73.9206 21.6087C74.2703 21.6087 74.605 21.4107 74.7643 21.0727C74.9833 20.6065 74.7838 20.0504 74.3177 19.8303C73.2765 19.3393 70.8535 18.6516 69.651 18.3247C69.7134 17.7979 69.7167 17.2932 69.6751 16.8198C75.8315 14.5185 76.2228 13.98 76.3866 13.7494C76.6862 13.3294 76.5894 12.7466 76.1708 12.4471C75.7834 12.169 75.2569 12.2309 74.943 12.574C74.4542 12.9263 71.7362 14.047 69.2871 14.9711C69.1246 14.4847 68.9394 14.0685 68.7723 13.7456C68.9003 13.698 69.0271 13.6511 69.1655 13.5997C71.1083 12.8795 76.9299 10.7182 78.1246 10.8197C78.3287 11.6754 77.099 15.2166 74.8071 16.4258C74.566 16.5528 74.3925 16.7794 74.3327 17.0451C74.2722 17.3115 74.3314 17.5908 74.4945 17.8096C76.0388 19.8849 77.3569 22.2026 77.4349 22.9384L77.4351 22.9384Z" fill="black"/>
<path d="M29.6339 24.2706C29.1296 24.3715 28.802 24.8638 28.9034 25.3691C29.1634 26.6721 29.1003 27.0017 29.0977 27.0427C29.0828 27.0518 28.9385 27.1312 28.347 27.1312C27.5866 27.0746 24.7314 24.6463 22.1126 21.828C22.0911 21.8046 22.0677 21.7824 22.0443 21.7616C21.8285 21.5727 21.2897 21.1084 15.3465 21.1664C15.9692 20.0008 16.6204 17.8545 15.5558 14.7691C15.3874 14.282 14.8577 14.0248 14.3709 14.1915C13.8847 14.3602 13.6267 14.8915 13.7944 15.3786C15.0365 18.9798 13.3986 20.7842 13.3115 20.8766C13.2159 20.9736 13.1503 21.0875 13.1061 21.208C12.9443 21.2119 12.798 21.2145 12.6303 21.2197C4.8874 21.4398 1.38341 19.8561 1.33016 19.8314C0.867398 19.6119 0.312972 19.808 0.0906923 20.2729C-0.131587 20.7379 0.0653451 21.2953 0.529412 21.518C0.683452 21.5916 4.39929 23.3204 12.6823 23.0867C18.684 22.9168 20.4708 23.1772 20.9076 23.2717C22.6431 25.1249 26.492 28.9995 28.3412 28.9995C29.1127 28.9995 29.9739 28.9109 30.5134 28.2506C31.0952 27.5402 31.0328 26.5224 30.7299 25.0044C30.6298 24.4977 30.1397 24.1682 29.6341 24.2705L29.6339 24.2706Z" fill="black"/>
<path d="M55.2945 21.5866C54.8116 21.4128 54.2767 21.6602 54.0999 22.1447C52.8734 25.5232 49.5079 25.3558 49.3916 25.3473C48.6734 25.2112 45.5887 22.9652 43.1417 20.9628C42.9467 20.8032 42.6964 20.7277 42.4462 20.7583C36.4419 21.444 25.3613 21.2988 25.2499 21.2975H25.2369C24.7286 21.2975 24.3126 21.7071 24.3055 22.2183C24.299 22.734 24.7097 23.1573 25.2245 23.1645C25.6743 23.1703 36.0841 23.3071 42.2678 22.6565C44.451 24.4291 47.9711 27.1275 49.251 27.2084C49.3562 27.2149 49.4667 27.2182 49.5824 27.2182C51.4563 27.2182 54.5768 26.3 55.8533 22.7835C56.0282 22.299 55.7792 21.7631 55.2956 21.5866L55.2945 21.5866Z" fill="black"/>
<path d="M24.5058 18.3592C24.0015 18.4621 23.6765 18.9557 23.7798 19.4604C23.8702 19.9025 24.2582 20.2073 24.6917 20.2073C24.7535 20.2073 24.8165 20.2015 24.8789 20.1884C27.2681 19.6987 27.8954 18.2382 28.0566 17.4105C28.2743 16.2943 27.8948 14.9744 27.2279 14.5296C26.8698 14.2913 26.4239 13.9924 18.885 15.7988C18.3845 15.9186 18.0758 16.4227 18.1954 16.9241C18.315 17.4261 18.8213 17.7355 19.3185 17.615C21.9619 16.9814 25.0804 16.3263 26.1769 16.2169C26.2562 16.476 26.3153 16.8928 26.1594 17.29C25.952 17.8169 25.3957 18.1763 24.5059 18.3593L24.5058 18.3592Z" fill="black"/>
</g>
<defs>
<clipPath id="clip0_3_8">
<rect width="80" height="29" fill="white"/>
</clipPath>
</defs>
</svg>
