<svg width="225" height="251" viewBox="0 0 225 251" fill="none" xmlns="http://www.w3.org/2000/svg">
<g clip-path="url(#clip0_3_15)">
<path d="M197.257 193.394H3.75214V0H197.257V193.394Z" fill="white"/>
<path d="M197.257 193.394H3.75214V0H197.257V193.394ZM6.61113 190.536H194.398V2.85738H6.61113V190.536Z" fill="#CFE1FB"/>
<path d="M162.977 30.2566H79.1812V32.8654H162.977V30.2566Z" fill="#CFE1FB"/>
<path d="M162.977 37.0394H79.1812V39.6482H162.977V37.0394Z" fill="#CFE1FB"/>
<path d="M162.977 43.8222H79.1812V46.431H162.977V43.8222Z" fill="#CFE1FB"/>
<path d="M162.977 88.4994H79.1812V91.1081H162.977V88.4994Z" fill="#CFE1FB"/>
<path d="M162.977 95.2822H79.1812V97.891H162.977V95.2822Z" fill="#CFE1FB"/>
<path d="M162.977 102.065H79.1812V104.674H162.977V102.065Z" fill="#CFE1FB"/>
<path d="M162.977 146.742H79.1812V149.351H162.977V146.742Z" fill="#CFE1FB"/>
<path d="M162.977 153.525H79.1812V156.134H162.977V153.525Z" fill="#CFE1FB"/>
<path d="M162.977 160.308H79.1812V162.917H162.977V160.308Z" fill="#CFE1FB"/>
<path d="M45.6358 51.0419C44.2043 50.288 42.71 49.6595 41.1699 49.1636L40.9735 46.9924L33.0088 46.1348L31.9966 48.91L29.1383 49.982C29.036 50.0208 28.9386 50.0714 28.8482 50.133H28.8451C28.6856 50.2407 28.5497 50.3799 28.4458 50.5418C28.3419 50.7038 28.2722 50.8853 28.2408 51.0751C28.2103 51.2639 28.2175 51.4569 28.262 51.6429L28.4131 52.2619C28.6306 52.3918 28.8542 52.5156 29.0778 52.6334L29.2198 52.7058C29.5462 52.8749 29.8786 53.035 30.22 53.183C30.2895 53.2132 30.365 53.2434 30.4345 53.2736C30.4405 53.2766 30.4435 53.2766 30.4496 53.2796C30.6098 53.346 30.7698 53.4094 30.933 53.4698C31.469 53.6744 32.0157 53.8498 32.5707 53.9953C33.9871 54.3726 35.4467 54.5634 36.9126 54.563C37.4474 54.563 37.9762 54.5388 38.4989 54.4875C39.6933 54.3773 40.8724 54.1394 42.016 53.7779C42.0189 53.7779 42.022 53.7749 42.025 53.7749C42.7474 53.5448 43.4531 53.2653 44.1371 52.9384C44.1401 52.9353 44.1461 52.9353 44.1492 52.9323C44.3032 52.8599 44.4514 52.7814 44.6024 52.7058L44.6749 52.6696C44.7957 52.6062 44.9167 52.5428 45.0375 52.4763C45.3397 52.3102 45.6358 52.1351 45.9288 51.9479C46.0104 51.8995 46.089 51.8482 46.1706 51.7939C46.2854 51.7184 46.4001 51.6398 46.512 51.5583C46.2309 51.3771 45.9379 51.205 45.6358 51.0419Z" fill="#3F3D56"/>
<path d="M30.6883 52.3797L30.1898 50.13H28.8875C28.8743 50.1301 28.8612 50.1311 28.8482 50.133H28.8451C28.3771 50.1726 27.9264 50.3283 27.5339 50.586C27.2676 50.7558 27.0308 50.968 26.8329 51.2141C27.2196 51.507 27.6215 51.7788 28.0355 52.0385L28.0536 52.0475C28.1713 52.12 28.2923 52.1925 28.4132 52.2619C28.6307 52.3918 28.8543 52.5156 29.0778 52.6333L29.2199 52.7058C29.5462 52.8749 29.8786 53.035 30.22 53.1829C30.2895 53.2131 30.3651 53.2433 30.4345 53.2735C30.4406 53.2766 30.4436 53.2766 30.4496 53.2796C30.6098 53.346 30.7699 53.4094 30.9331 53.4698L30.6883 52.3797Z" fill="#3F3D56"/>
<path d="M36.6786 44.7621C39.8466 44.7621 42.4148 42.1954 42.4148 39.0291C42.4148 35.8629 39.8466 33.2962 36.6786 33.2962C33.5106 33.2962 30.9424 35.8629 30.9424 39.0291C30.9424 42.1954 33.5106 44.7621 36.6786 44.7621Z" fill="#FFB8B8"/>
<path d="M32.8274 36.2367C33.4212 36.9391 34.4261 37.1372 35.3531 37.2185C37.5204 37.3382 39.6939 37.1608 41.813 36.6913C41.9443 37.9633 41.5863 39.3348 42.336 40.3811C42.6874 39.1144 42.8917 37.8114 42.9449 36.498C43.0009 35.9344 42.9273 35.3656 42.7297 34.8348C42.624 34.5688 42.4458 34.3378 42.2154 34.168C41.9849 33.9981 41.7114 33.8963 41.4259 33.8741C41.8533 33.5501 42.3538 33.3362 42.8835 33.2514L41.0621 32.3366L41.5298 31.8567L38.2323 31.655L39.1874 31.0486C37.7499 30.8512 36.2957 30.8053 34.8486 30.9117C34.1724 30.912 33.509 31.0963 32.9297 31.4448C32.3852 31.8339 32.0706 32.6073 32.4086 33.1786C31.9854 33.248 31.587 33.4243 31.2511 33.6907C30.9152 33.9571 30.6529 34.3048 30.489 34.7008C30.2818 35.3304 30.2318 36.001 30.3433 36.6543C30.4675 37.7024 30.7112 38.7329 31.0697 39.7257L32.8274 36.2367Z" fill="#2F2E41"/>
<path d="M52.8088 32.8145C52.0039 30.5037 50.7044 28.3962 49.0009 26.6389C47.2974 24.8816 45.2308 23.5169 42.9453 22.6398C40.6598 21.7628 38.2104 21.3946 35.7679 21.5608C33.3253 21.7271 30.9485 22.4239 28.8031 23.6025C26.6577 24.7812 24.7954 26.4134 23.346 28.3853C21.8966 30.3572 20.895 32.6214 20.4111 35.0199C19.9272 37.4184 19.9727 39.8935 20.5443 42.2727C21.1159 44.6519 22.1998 46.8778 23.7206 48.7952C23.8717 48.9855 24.0288 49.1757 24.189 49.3599C24.2011 49.372 24.2101 49.3841 24.2222 49.3962C24.6161 49.8497 25.0347 50.2812 25.4761 50.6886C25.5911 50.7943 25.7119 50.903 25.8327 51.0057C26.0623 51.2111 26.298 51.4073 26.5428 51.5946C26.6394 51.6701 26.7331 51.7456 26.8329 51.8181C27.2195 52.111 27.6214 52.3827 28.0354 52.6424L28.0536 52.6515C28.1713 52.724 28.2923 52.7965 28.4131 52.8659C28.6306 52.9958 28.8542 53.1196 29.0778 53.2373L29.2198 53.3098C29.5462 53.4789 29.8786 53.639 30.22 53.7869C30.2895 53.8172 30.365 53.8473 30.4345 53.8775C30.4405 53.8806 30.4435 53.8806 30.4495 53.8836C30.6098 53.95 30.7698 54.0134 30.933 54.0738C31.469 54.2784 32.0157 54.4538 32.5707 54.5993C33.9871 54.9766 35.4467 55.1674 36.9126 55.167C37.4474 55.167 37.9762 55.1428 38.4989 55.0915C39.6933 54.9813 40.8724 54.7434 42.016 54.3819C42.0189 54.3819 42.022 54.3788 42.025 54.3788C42.7474 54.1488 43.4531 53.8693 44.1371 53.5423C44.1401 53.5393 44.1461 53.5393 44.1492 53.5363C44.3032 53.4638 44.4514 53.3853 44.6024 53.3098L44.6749 53.2736C44.7957 53.2102 44.9167 53.1467 45.0375 53.0803C45.3397 52.9142 45.6358 52.7391 45.9288 52.5518C46.0104 52.5035 46.089 52.4522 46.1706 52.3978C46.2854 52.3223 46.4001 52.2438 46.512 52.1623C46.66 52.0596 46.8081 51.9539 46.9531 51.8452C46.9984 51.812 47.0468 51.7788 47.0921 51.7426C49.9228 49.5951 52.0006 46.6071 53.0276 43.2068C54.0546 39.8065 53.978 36.1686 52.8088 32.8145V32.8145ZM46.5362 51.0087C46.4364 51.0872 46.3338 51.1627 46.2309 51.2322C46.1312 51.3077 46.0316 51.3802 45.9288 51.4466C45.8411 51.51 45.7535 51.5704 45.6629 51.6278L45.6358 51.6459C45.5692 51.6912 45.5028 51.7335 45.4363 51.7758C45.1855 51.9328 44.9317 52.0838 44.6749 52.2287L44.5933 52.274C44.4785 52.3375 44.3637 52.3979 44.2489 52.4583C44.2337 52.4673 44.2156 52.4733 44.2006 52.4824L44.1824 52.4915C44.0374 52.567 43.8893 52.6394 43.7413 52.7089C43.17 52.9839 42.5816 53.2219 41.9797 53.4216C41.9011 53.4487 41.8226 53.4759 41.7441 53.5001C40.6617 53.8442 39.5453 54.0709 38.4144 54.1765C37.9188 54.2218 37.4172 54.246 36.9126 54.246C35.5261 54.2488 34.1454 54.0681 32.8064 53.7084C32.1193 53.5292 31.4458 53.3011 30.7911 53.026C30.7578 53.0109 30.7215 52.9988 30.6883 52.9837C30.6521 52.9686 30.6188 52.9565 30.5856 52.9414C30.5493 52.9263 30.5161 52.9112 30.4798 52.8931C30.1958 52.7693 29.9147 52.6334 29.6399 52.4915L29.5069 52.422C29.1714 52.2469 28.8422 52.0596 28.5219 51.8603C28.4282 51.8029 28.3315 51.7426 28.2408 51.6791C28.2168 51.664 28.1955 51.6489 28.1713 51.6338C27.9568 51.4919 27.7423 51.3439 27.5338 51.1899C27.3919 51.0842 27.2498 50.9785 27.1108 50.8698C26.8782 50.6947 26.6545 50.5074 26.437 50.3142C26.3222 50.2175 26.2104 50.1119 26.1017 50.0122C25.6733 49.6169 25.2677 49.1974 24.887 48.756C24.7601 48.611 24.6362 48.4661 24.5183 48.3151C24.4915 48.2852 24.4663 48.254 24.4428 48.2215C22.4796 45.7456 21.2988 42.7414 21.0509 39.5921C20.803 36.4428 21.4993 33.291 23.0509 30.5388C24.6026 27.7866 26.9393 25.5586 29.7631 24.139C32.5868 22.7195 35.7696 22.1726 38.9056 22.5682C42.0416 22.9639 44.9886 24.2841 47.3708 26.3604C49.753 28.4368 51.4624 31.1752 52.281 34.2264C53.0997 37.2777 52.9905 40.5035 51.9673 43.4925C50.9441 46.4814 49.0534 49.0981 46.5362 51.0087L46.5362 51.0087Z" fill="#3F3D56"/>
<path d="M52.8089 91.0573C52.0041 88.7465 50.7046 86.639 49.001 84.8817C47.2975 83.1244 45.2309 81.7597 42.9454 80.8826C40.6599 80.0056 38.2105 79.6374 35.768 79.8036C33.3255 79.9699 30.9486 80.6667 28.8032 81.8453C26.6578 83.024 24.7955 84.6562 23.3461 86.6281C21.8967 88.6 20.8952 90.8641 20.4113 93.2627C19.9274 95.6612 19.9728 98.1363 20.5444 100.515C21.116 102.895 22.2 105.121 23.7208 107.038C23.8718 107.228 24.029 107.419 24.189 107.603C24.2011 107.615 24.2101 107.627 24.2222 107.639C24.6162 108.092 25.0348 108.524 25.4763 108.931C25.5911 109.037 25.7119 109.146 25.8327 109.248C26.0624 109.454 26.298 109.65 26.5428 109.837C27.0207 110.214 27.519 110.564 28.0354 110.885L28.0536 110.894C28.3889 111.103 28.7303 111.296 29.0779 111.48L29.2198 111.553C29.5462 111.722 29.8786 111.882 30.22 112.03C30.2895 112.06 30.365 112.09 30.4345 112.12C30.4405 112.123 30.4436 112.123 30.4497 112.126C31.1395 112.413 31.8482 112.652 32.5708 112.842C33.9872 113.219 35.4468 113.41 36.9126 113.41C37.4474 113.41 37.9762 113.386 38.4989 113.334C39.6933 113.224 40.8724 112.986 42.016 112.625C42.0191 112.625 42.022 112.622 42.025 112.622C42.7474 112.392 43.4531 112.112 44.1371 111.785C44.14 111.782 44.1462 111.782 44.1492 111.779C44.3032 111.707 44.4513 111.628 44.6024 111.553L44.675 111.516C44.7958 111.453 44.9167 111.39 45.0375 111.323C45.3396 111.157 45.6357 110.982 45.9289 110.795C46.0105 110.746 46.089 110.695 46.1706 110.641C46.4364 110.465 46.6993 110.278 46.9531 110.088C46.9985 110.055 47.0468 110.022 47.0922 109.985C49.9229 107.838 52.0006 104.85 53.0275 101.45C54.0545 98.0493 53.978 94.4114 52.8089 91.0573V91.0573Z" fill="white"/>
<path d="M42.4673 103.521C43.8606 103.521 44.99 102.392 44.99 101C44.99 99.6076 43.8606 98.4788 42.4673 98.4788C41.0741 98.4788 39.9447 99.6076 39.9447 101C39.9447 102.392 41.0741 103.521 42.4673 103.521Z" fill="#2F2E41"/>
<path d="M43.1702 98.5483C43.6068 98.5483 44.0359 98.6616 44.4156 98.877C44.7953 99.0924 45.1126 99.4026 45.3364 99.7773C45.5602 100.152 45.6829 100.578 45.6925 101.015C45.702 101.451 45.5981 101.882 45.391 102.266C45.6096 101.993 45.7689 101.677 45.8586 101.338C45.9483 101 45.9665 100.647 45.912 100.301C45.8575 99.955 45.7316 99.6243 45.5422 99.3299C45.3528 99.0354 45.1041 98.7836 44.8119 98.5904C44.5198 98.3973 44.1906 98.2672 43.8453 98.2082C43.5 98.1493 43.1463 98.1628 42.8065 98.2481C42.4668 98.3333 42.1486 98.4884 41.8721 98.7033C41.5956 98.9182 41.367 99.1884 41.2007 99.4965C41.4366 99.2006 41.7362 98.9616 42.0772 98.7974C42.4182 98.6333 42.7919 98.5481 43.1705 98.5483L43.1702 98.5483Z" fill="#2F2E41"/>
<path d="M37.7532 100.995C41.8459 100.995 45.1637 97.6787 45.1637 93.5883C45.1637 89.4979 41.8459 86.1819 37.7532 86.1819C33.6604 86.1819 30.3426 89.4979 30.3426 93.5883C30.3426 97.6787 33.6604 100.995 37.7532 100.995Z" fill="#2F2E41"/>
<path d="M31.9371 88.9931C33.214 87.5579 34.9988 86.6746 36.915 86.5297C38.8312 86.3847 40.7287 86.9895 42.2072 88.2164C42.1468 88.1587 42.0863 88.1007 42.0238 88.0449C40.5599 86.7342 38.635 86.0584 36.6725 86.1661C34.7101 86.2739 32.8709 87.1564 31.5594 88.6194C30.248 90.0825 29.5718 92.0063 29.6796 93.9676C29.7874 95.9289 30.6704 97.7671 32.1343 99.0778C32.1484 99.0904 32.1625 99.1029 32.1766 99.1154C32.2395 99.1713 32.3042 99.2241 32.3685 99.2776C30.9763 97.9538 30.1531 96.1413 30.0726 94.2224C29.9922 92.3036 30.6608 90.4286 31.9373 88.9931L31.9371 88.9931Z" fill="#2F2E41"/>
<path d="M37.6903 100.932C40.3263 100.932 42.4631 98.7962 42.4631 96.1617C42.4631 93.5273 40.3263 91.3917 37.6903 91.3917C35.0544 91.3917 32.9175 93.5273 32.9175 96.1617C32.9175 98.7962 35.0544 100.932 37.6903 100.932Z" fill="#A0616A"/>
<path d="M46.2311 108.59V110.191C45.9379 110.378 45.6418 110.553 45.3397 110.719C45.2188 110.786 45.098 110.849 44.9772 110.912L44.9046 110.949C44.7535 111.024 44.6054 111.103 44.4513 111.175C44.4484 111.178 44.4422 111.178 44.4392 111.181C43.7553 111.508 43.0496 111.788 42.3271 112.018C42.3242 112.018 42.3212 112.021 42.3181 112.021C41.1745 112.382 39.9954 112.62 38.8011 112.73C38.2783 112.782 37.7496 112.806 37.2148 112.806C35.7489 112.806 34.2893 112.615 32.873 112.238C32.1504 112.048 31.4417 111.809 30.7518 111.522C30.7458 111.519 30.7427 111.519 30.7366 111.516C30.6672 111.486 30.5916 111.456 30.5221 111.426C30.1807 111.278 29.8483 111.118 29.522 110.949L29.3801 110.876C29.0325 110.692 28.6911 110.499 28.3557 110.29L28.3376 110.281C27.8211 109.96 27.3229 109.61 26.845 109.233C26.6002 109.046 26.3646 108.85 26.1349 108.645C26.0141 108.542 25.8932 108.433 25.7784 108.327C25.337 107.92 24.9183 107.489 24.5244 107.035C24.5766 106.72 24.6534 106.41 24.7541 106.108L24.757 106.105C24.7751 106.053 24.7963 106.003 24.8205 105.954C24.8372 105.911 24.8563 105.868 24.8779 105.827C25.4187 104.815 26.3978 104.565 27.6124 104.51C28.2983 104.48 29.0567 104.513 29.8575 104.504C30.2805 104.501 30.7185 104.486 31.1567 104.447C33.9213 104.196 33.4199 102.566 33.5437 101.687C33.6676 100.835 34.4351 101.572 34.4864 101.621L34.4894 101.624C36.0539 102.355 37.7848 102.659 39.5051 102.502C39.8012 102.466 40.0973 102.445 40.3934 102.436C41.173 102.427 41.0038 102.65 40.735 102.834C40.6044 102.92 40.4682 102.997 40.327 103.064C40.327 103.064 40.2031 103.819 40.0762 104.948C39.9554 106.029 42.0281 106.537 42.2003 106.576C42.2038 106.578 42.2081 106.579 42.2124 106.579C42.9693 106.383 43.7663 106.404 44.5119 106.639H44.5148C44.9408 106.796 45.3209 107.056 45.6207 107.397C45.9204 107.738 46.1302 108.148 46.2311 108.59Z" fill="#7193C3"/>
<path d="M30.7819 110.532C30.7819 110.755 30.776 110.97 30.7669 111.172C30.7639 111.293 30.7579 111.411 30.7518 111.522C30.7458 111.519 30.7427 111.519 30.7366 111.516C30.6671 111.486 30.5916 111.456 30.5221 111.426C30.1807 111.278 29.8483 111.118 29.522 110.949L29.38 110.876C29.0325 110.692 28.6911 110.499 28.3557 110.29C28.3647 110.185 28.3799 110.079 28.3949 109.973C28.4281 109.741 28.4554 109.505 28.4736 109.273C28.5924 107.639 28.2961 106.002 27.6124 104.513V104.51C27.5519 104.39 27.5158 104.323 27.5158 104.323C27.5158 104.323 28.3949 103.568 29.6488 104.323C29.7289 104.37 29.7997 104.432 29.8574 104.504C30.6128 105.395 30.8182 108.391 30.7819 110.532Z" fill="#2F2E41"/>
<path d="M44.5027 110.121C44.4906 110.459 44.4724 110.813 44.4513 111.172V111.175C44.4484 111.178 44.4422 111.178 44.4392 111.181C43.7553 111.508 43.0496 111.788 42.3271 112.018C42.3242 112.018 42.3212 112.021 42.3181 112.021L42.2849 111.172L42.2818 111.06L42.1218 106.929C42.1175 106.836 42.1322 106.742 42.165 106.655C42.1979 106.567 42.2481 106.487 42.3128 106.419C42.3775 106.351 42.4552 106.298 42.5413 106.261C42.6274 106.224 42.72 106.205 42.8137 106.205H44.3456C44.4211 106.205 44.4755 106.359 44.5118 106.636V106.639C44.5861 107.799 44.5831 108.962 44.5027 110.121Z" fill="#2F2E41"/>
<path d="M33.6082 90.1992V94.9704H34.7135L36.12 93.4642L35.9318 94.9704H40.8176L40.5154 93.4642L41.1197 94.9704H41.8987V90.1992H33.6082Z" fill="#2F2E41"/>
<path d="M32.8547 95.848C33.0628 95.848 33.2315 95.5389 33.2315 95.1577C33.2315 94.7764 33.0628 94.4673 32.8547 94.4673C32.6466 94.4673 32.4779 94.7764 32.4779 95.1577C32.4779 95.5389 32.6466 95.848 32.8547 95.848Z" fill="#A0616A"/>
<path d="M42.5263 95.848C42.7343 95.848 42.903 95.5389 42.903 95.1577C42.903 94.7764 42.7343 94.4673 42.5263 94.4673C42.3182 94.4673 42.1495 94.7764 42.1495 95.1577C42.1495 95.5389 42.3182 95.848 42.5263 95.848Z" fill="#A0616A"/>
<path d="M47.2553 109.484C47.0015 109.674 46.7386 109.861 46.4727 110.037C46.3912 110.091 46.3127 110.142 46.2311 110.191C45.9379 110.378 45.6418 110.553 45.3397 110.719C45.2188 110.786 45.098 110.849 44.9772 110.912V107.585C44.9772 107.585 45.4605 107.971 46.2311 108.614C46.3277 108.696 46.4274 108.78 46.5332 108.871C46.7567 109.058 46.9985 109.264 47.2553 109.484Z" fill="#7193C3"/>
<path d="M52.8089 91.0573C52.0041 88.7465 50.7046 86.639 49.001 84.8817C47.2975 83.1244 45.2309 81.7597 42.9454 80.8826C40.6599 80.0056 38.2105 79.6374 35.768 79.8036C33.3255 79.9699 30.9486 80.6667 28.8032 81.8453C26.6578 83.024 24.7955 84.6562 23.3461 86.6281C21.8967 88.6 20.8952 90.8641 20.4113 93.2627C19.9274 95.6612 19.9728 98.1363 20.5444 100.515C21.116 102.895 22.2 105.121 23.7208 107.038C23.8718 107.228 24.029 107.419 24.189 107.603C24.2011 107.615 24.2101 107.627 24.2222 107.639C24.6162 108.092 25.0348 108.524 25.4763 108.931C25.5911 109.037 25.7119 109.146 25.8327 109.248C26.0624 109.454 26.298 109.65 26.5428 109.837C27.0207 110.214 27.519 110.564 28.0354 110.885L28.0536 110.894C28.3889 111.103 28.7303 111.296 29.0779 111.48L29.2198 111.553C29.5462 111.722 29.8786 111.882 30.22 112.03C30.2895 112.06 30.365 112.09 30.4345 112.12C30.4405 112.123 30.4436 112.123 30.4497 112.126C31.1395 112.413 31.8482 112.652 32.5708 112.842C33.9872 113.219 35.4468 113.41 36.9126 113.41C37.4474 113.41 37.9762 113.386 38.4989 113.334C39.6933 113.224 40.8724 112.986 42.016 112.625C42.0191 112.625 42.022 112.622 42.025 112.622C42.7474 112.392 43.4531 112.112 44.1371 111.785C44.14 111.782 44.1462 111.782 44.1492 111.779C44.3032 111.707 44.4513 111.628 44.6024 111.553L44.675 111.516C44.7958 111.453 44.9167 111.39 45.0375 111.323C45.3396 111.157 45.6357 110.982 45.9289 110.795C46.0105 110.746 46.089 110.695 46.1706 110.641C46.4364 110.465 46.6993 110.278 46.9531 110.088C46.9985 110.055 47.0468 110.022 47.0922 109.985C49.9229 107.838 52.0006 104.85 53.0275 101.45C54.0545 98.0493 53.978 94.4114 52.8089 91.0573V91.0573ZM46.5361 109.252C46.4364 109.33 46.3337 109.406 46.2311 109.475C46.1313 109.55 46.0316 109.623 45.9289 109.689C45.8413 109.753 45.7536 109.813 45.6629 109.871C45.5874 109.922 45.5118 109.97 45.4363 110.019C45.1856 110.176 44.9318 110.327 44.675 110.471L44.5933 110.517C44.4785 110.58 44.3637 110.641 44.2489 110.701C44.2337 110.71 44.2156 110.716 44.2005 110.725L44.1824 110.734C44.0374 110.81 43.8894 110.882 43.7413 110.952C43.1699 111.227 42.5815 111.465 41.9797 111.664C41.9012 111.691 41.8226 111.719 41.7441 111.743C40.6616 112.087 39.5453 112.314 38.4144 112.419C37.9188 112.465 37.4172 112.489 36.9126 112.489C35.5261 112.492 34.1454 112.311 32.8064 111.951C32.1192 111.772 31.4457 111.544 30.7911 111.269C30.7216 111.242 30.6521 111.211 30.5856 111.184C30.5494 111.169 30.5161 111.154 30.4798 111.136C30.1958 111.012 29.9149 110.876 29.6399 110.734L29.5069 110.665C29.1716 110.49 28.8421 110.302 28.5218 110.103C28.4041 110.031 28.2862 109.955 28.1714 109.877C27.8088 109.638 27.4553 109.381 27.1108 109.113C26.8782 108.937 26.6546 108.75 26.437 108.557C26.3222 108.46 26.2104 108.355 26.1017 108.255C25.6733 107.86 25.2677 107.44 24.887 106.999C24.7601 106.854 24.6362 106.709 24.5183 106.558C24.4915 106.528 24.4663 106.497 24.4428 106.464C22.4796 103.988 21.2988 100.984 21.0509 97.8349C20.803 94.6855 21.4993 91.5338 23.0509 88.7816C24.6026 86.0293 26.9393 83.8014 29.763 82.3818C32.5868 80.9622 35.7696 80.4154 38.9056 80.811C42.0415 81.2067 44.9885 82.5268 47.3707 84.6032C49.7529 86.6795 51.4624 89.4179 52.281 92.4692C53.0997 95.5205 52.9904 98.7463 51.9673 101.735C50.9441 104.724 49.0533 107.341 46.5361 109.252V109.252Z" fill="#3F3D56"/>
<path d="M37.0077 162.391C40.65 162.391 43.6026 159.44 43.6026 155.8C43.6026 152.159 40.65 149.208 37.0077 149.208C33.3654 149.208 30.4128 152.159 30.4128 155.8C30.4128 159.44 33.3654 162.391 37.0077 162.391Z" fill="#2F2E41"/>
<path d="M31.86 152.246C32.9257 151.181 33.1417 149.67 32.3424 148.871C31.5431 148.072 30.0312 148.288 28.9655 149.353C27.8998 150.418 27.6838 151.929 28.4831 152.728C29.2824 153.527 30.7943 153.311 31.86 152.246Z" fill="#2F2E41"/>
<path d="M43.8813 150.153C44.3254 149.114 43.5618 147.792 42.1758 147.2C40.7898 146.609 39.3063 146.971 38.8622 148.01C38.4182 149.049 39.1818 150.371 40.5678 150.962C41.9538 151.554 43.4373 151.192 43.8813 150.153Z" fill="#2F2E41"/>
<path d="M44.8962 168.585L44.1192 167.363C43.7895 166.627 43.1813 166.051 42.4279 165.762C41.6745 165.473 40.8373 165.495 40.0995 165.822C39.3618 166.148 38.7838 166.754 38.492 167.506C38.2003 168.258 38.2186 169.095 38.5429 169.833L38.7639 170.625L39.0153 171.523C40.0333 171.395 41.0377 171.176 42.0167 170.869C42.0196 170.868 42.0223 170.867 42.0243 170.865C42.7479 170.636 43.4544 170.356 44.1383 170.027C44.1421 170.024 44.1458 170.024 44.1497 170.02C44.302 169.948 44.4506 169.871 44.6029 169.795C44.6278 169.784 44.652 169.771 44.6753 169.757C44.7971 169.696 44.9191 169.632 45.0372 169.567C45.159 169.502 45.277 169.434 45.3913 169.361L44.8962 168.585Z" fill="#CACACA"/>
<path d="M37.2168 162.967C40.308 162.967 42.8139 160.462 42.8139 157.373C42.8139 154.284 40.308 151.779 37.2168 151.779C34.1257 151.779 31.6198 154.284 31.6198 157.373C31.6198 160.462 34.1257 162.967 37.2168 162.967Z" fill="#FFB6B6"/>
<path d="M45.3 168.345C44.6826 167.319 43.9162 166.39 43.026 165.589C42.4162 165.044 41.627 164.743 40.8093 164.744H32.9248C32.4705 164.744 32.021 164.837 31.604 165.017C31.187 165.197 30.8115 165.461 30.5006 165.792C30.1897 166.123 29.95 166.514 29.7963 166.942C29.6427 167.369 29.5783 167.823 29.6073 168.276C29.6245 168.532 29.6705 168.785 29.7445 169.03C29.8007 169.208 29.8707 169.381 29.9539 169.548L30.3424 170.324C30.3729 170.336 30.4034 170.351 30.4338 170.362C30.4414 170.366 30.4453 170.366 30.449 170.37C30.6089 170.435 30.7691 170.499 30.9327 170.56C31.4687 170.765 32.0155 170.941 32.5707 171.086C33.4643 171.326 34.3765 171.49 35.2977 171.577C35.8348 171.626 36.3719 171.653 36.9127 171.653C37.4499 171.653 37.9754 171.626 38.501 171.577C38.6725 171.562 38.8438 171.543 39.0153 171.524C40.0332 171.395 41.0377 171.176 42.0166 170.869C42.0195 170.868 42.0222 170.867 42.0242 170.865C42.7478 170.636 43.4543 170.356 44.1383 170.027C44.142 170.024 44.1457 170.024 44.1496 170.02C44.3019 169.948 44.4505 169.871 44.6029 169.795C44.6277 169.784 44.6519 169.771 44.6752 169.757C44.797 169.696 44.919 169.632 45.0371 169.567C45.1589 169.502 45.277 169.434 45.3912 169.361C45.5132 169.297 45.6274 169.224 45.7455 169.152C45.6009 168.866 45.4523 168.6 45.3 168.345Z" fill="#CFE1FB"/>
<path d="M34.3531 165.764C33.6235 165.423 32.7884 165.384 32.0304 165.657C31.2725 165.929 30.6533 166.491 30.3082 167.218L29.6073 168.276L29.2721 168.783L28.7618 169.552C28.8684 169.609 28.9712 169.666 29.078 169.723L29.2188 169.795C29.5465 169.963 29.8777 170.123 30.2206 170.271C30.2586 170.29 30.3006 170.305 30.3425 170.324C30.373 170.336 30.4035 170.351 30.4338 170.362C30.4414 170.366 30.4453 170.366 30.449 170.37C30.609 170.435 30.7691 170.499 30.9327 170.56C31.4687 170.765 32.0155 170.941 32.5707 171.086C33.4643 171.326 34.3765 171.49 35.2977 171.577L35.5644 170.675L35.8235 169.814C36.1649 169.082 36.2019 168.245 35.9262 167.485C35.6506 166.726 35.0849 166.107 34.3531 165.764Z" fill="#CFE1FB"/>
<path d="M31.3357 153.855C32.6147 154.736 34.1328 155.204 35.6861 155.198C35.132 155.582 34.5012 155.842 33.8372 155.959C35.9025 156.401 38.037 156.413 40.1071 155.994C40.5673 155.92 41.0113 155.768 41.4197 155.543C41.6232 155.43 41.8005 155.274 41.9401 155.088C42.0796 154.901 42.1784 154.688 42.2298 154.46C42.3674 153.675 41.755 152.961 41.1187 152.48C40.1444 151.755 39.021 151.256 37.8298 151.018C36.6386 150.78 35.4093 150.81 34.231 151.105C33.4459 151.263 32.7315 151.666 32.1912 152.257C31.9297 152.558 31.7719 152.934 31.7409 153.331C31.71 153.729 31.8077 154.125 32.0195 154.462L31.3357 153.855Z" fill="#2F2E41"/>
<path d="M52.811 149.3C52.0063 146.989 50.7069 144.881 49.0034 143.124C47.2999 141.366 45.2332 140.001 42.9476 139.124C40.662 138.247 38.2124 137.878 35.7697 138.044C33.327 138.211 30.95 138.907 28.8044 140.086C26.6589 141.265 24.7964 142.897 23.3469 144.869C21.8975 146.841 20.8959 149.106 20.4121 151.504C19.9283 153.903 19.9738 156.378 20.5456 158.758C21.1174 161.137 22.2016 163.363 23.7226 165.28C23.8711 165.471 24.0312 165.661 24.1911 165.844C24.2003 165.857 24.2105 165.87 24.2216 165.882C24.6161 166.335 25.0357 166.766 25.4785 167.172C25.5927 167.279 25.7108 167.389 25.8328 167.492C26.0612 167.698 26.2974 167.892 26.5449 168.078C26.6401 168.155 26.7353 168.231 26.8345 168.303C27.2191 168.596 27.6228 168.866 28.0342 169.129C28.0413 169.129 28.048 169.132 28.0532 169.137C28.1713 169.209 28.2933 169.281 28.4151 169.35C28.5293 169.418 28.6474 169.487 28.7618 169.552C28.8684 169.609 28.9712 169.666 29.078 169.723L29.2188 169.795C29.5464 169.963 29.8777 170.123 30.2206 170.271C30.2586 170.29 30.3006 170.305 30.3424 170.324C30.3729 170.336 30.4034 170.351 30.4338 170.362C30.4414 170.366 30.4453 170.366 30.449 170.37C30.6089 170.435 30.7691 170.499 30.9327 170.56C31.4687 170.765 32.0155 170.941 32.5707 171.086C33.4643 171.326 34.3765 171.49 35.2977 171.577C35.8348 171.626 36.3719 171.653 36.9128 171.653C37.4499 171.653 37.9754 171.626 38.501 171.577C38.6725 171.562 38.8438 171.543 39.0153 171.523C40.0332 171.395 41.0377 171.176 42.0166 170.869C42.0195 170.868 42.0222 170.867 42.0242 170.865C42.7478 170.636 43.4543 170.356 44.1383 170.027C44.142 170.024 44.1457 170.024 44.1496 170.02C44.3019 169.948 44.4505 169.871 44.6029 169.795C44.6277 169.784 44.6519 169.771 44.6752 169.757C44.797 169.696 44.919 169.632 45.0371 169.567C45.1589 169.502 45.277 169.434 45.3912 169.361C45.5132 169.297 45.6274 169.224 45.7455 169.152C45.8065 169.114 45.8675 169.076 45.9284 169.038C46.0122 168.988 46.0883 168.939 46.1722 168.882C46.2864 168.809 46.4007 168.729 46.511 168.649C46.6596 168.547 46.8082 168.44 46.9529 168.33C47.0017 168.298 47.0487 168.264 47.0939 168.227C49.9225 166.078 51.9986 163.09 53.0255 159.691C54.0523 156.291 53.9772 152.654 52.8109 149.3L52.811 149.3ZM46.5378 167.492C46.4387 167.572 46.3358 167.648 46.2332 167.717C46.1302 167.793 46.0312 167.865 45.9284 167.934C45.8408 167.995 45.7532 168.056 45.6619 168.113C45.6536 168.12 45.6446 168.126 45.6351 168.132C45.5704 168.177 45.5017 168.219 45.437 168.261C45.3913 168.288 45.3457 168.318 45.2999 168.345C45.1666 168.429 45.0333 168.509 44.8962 168.585C44.8238 168.63 44.7476 168.672 44.6752 168.714C44.6486 168.729 44.6219 168.745 44.5952 168.76C44.4771 168.825 44.363 168.882 44.2486 168.943C44.2335 168.954 44.2144 168.958 44.203 168.969C44.1959 168.969 44.1891 168.972 44.1839 168.977C44.0392 169.053 43.8906 169.125 43.7422 169.194C43.1703 169.469 42.5811 169.707 41.9785 169.906C41.9024 169.932 41.8225 169.963 41.7462 169.986C40.7748 170.294 39.7761 170.508 38.7638 170.625C38.6496 170.64 38.5315 170.652 38.4134 170.663C37.9184 170.709 37.4194 170.732 36.9128 170.732C36.4632 170.732 36.01 170.713 35.5644 170.675C34.6328 170.597 33.7099 170.437 32.8069 170.195C32.1194 170.016 31.446 169.787 30.792 169.51C30.7576 169.495 30.7234 169.483 30.6891 169.468C30.651 169.453 30.6205 169.441 30.5863 169.426C30.5482 169.411 30.5177 169.396 30.4795 169.377C30.232 169.27 29.9845 169.152 29.7445 169.03C29.7101 169.011 29.6759 168.996 29.6417 168.977L29.5084 168.908C29.4284 168.866 29.3484 168.825 29.2722 168.783C29.017 168.646 28.7656 168.497 28.5219 168.345C28.4304 168.288 28.3315 168.227 28.24 168.166L28.1713 168.12C27.958 167.976 27.7449 167.831 27.5353 167.675C27.3943 167.568 27.2496 167.466 27.1126 167.355C26.8803 167.18 26.6554 166.994 26.4384 166.799C26.324 166.704 26.2098 166.598 26.1032 166.499C25.6743 166.104 25.2686 165.684 24.8882 165.242C24.7625 165.098 24.6368 164.953 24.5187 164.801C24.4921 164.77 24.4692 164.74 24.4424 164.706C22.4788 162.23 21.2976 159.225 21.0495 156.075C20.8013 152.926 21.4975 149.773 23.0492 147.021C24.6009 144.268 26.9378 142.04 29.7618 140.62C32.5859 139.2 35.7691 138.653 38.9055 139.048C42.0419 139.444 44.9894 140.764 47.3719 142.841C49.7545 144.917 51.4643 147.656 52.2832 150.708C53.102 153.759 52.9929 156.985 51.9696 159.975C50.9464 162.964 49.0554 165.581 46.5379 167.492H46.5378Z" fill="#3F3D56"/>
<path d="M65.0733 67.1082C59.2122 62.1654 52.04 59.0317 44.4294 58.0884C36.8188 57.1452 29.098 58.4331 22.2064 61.7954C15.3149 65.1578 9.54973 70.4495 5.61252 77.0268C1.67531 83.6041 -0.26421 91.1833 0.0299824 98.8422C0.324175 106.501 2.83939 113.909 7.26956 120.166C11.6997 126.422 17.8539 131.256 24.9831 134.081C32.1123 136.905 39.9092 137.597 47.425 136.074C54.9408 134.55 61.8516 130.876 67.3162 125.499L115.842 166.421C116.58 167.041 117.535 167.344 118.497 167.262C119.458 167.18 120.348 166.721 120.971 165.984C121.594 165.248 121.9 164.294 121.82 163.333C121.741 162.372 121.284 161.481 120.549 160.856L120.543 160.852L72.0181 119.93C77.6552 111.844 80.0678 101.946 78.7831 92.1745C77.4985 82.4035 72.6092 73.4641 65.0733 67.1082ZM61.9451 115.989C58.1647 120.467 53.1408 123.724 47.5085 125.347C41.8762 126.971 35.8886 126.89 30.3028 125.113C24.717 123.336 19.7839 119.943 16.1273 115.364C12.4707 110.785 10.2549 105.225 9.76004 99.387C9.26519 93.5493 10.5135 87.696 13.3472 82.5674C16.1809 77.4387 20.4726 73.265 25.6796 70.5741C30.8867 67.8832 36.7752 66.7959 42.6006 67.4497C48.426 68.1035 53.9265 70.4691 58.4067 74.2473C64.4144 79.3137 68.1623 86.5577 68.8259 94.3859C69.4894 102.214 67.0143 109.985 61.9451 115.989Z" fill="#B7D2FA"/>
<path opacity="0.3" d="M20.1792 119.526C14.4933 114.73 10.8198 107.973 9.8881 100.596C8.95637 93.2189 10.8346 85.7614 15.1498 79.7043C14.5831 80.2747 14.0352 80.872 13.5062 81.4964C10.9962 84.4694 9.09664 87.9074 7.91603 91.6141C6.73542 95.3208 6.29688 99.2237 6.62545 103.1C6.95402 106.976 8.04327 110.749 9.83099 114.205C11.6187 117.66 14.0699 120.73 17.0446 123.238C20.0193 125.747 23.4593 127.645 27.1682 128.825C30.877 130.005 34.7821 130.444 38.6604 130.115C42.5387 129.787 46.3143 128.698 49.7717 126.912C53.229 125.125 56.3004 122.675 58.8105 119.702C59.3383 119.077 59.8353 118.437 60.3015 117.781C55.0533 123.052 48.0138 126.157 40.581 126.48C33.1482 126.803 25.8655 124.321 20.1792 119.526Z" fill="#7193C3"/>
<path d="M162.9 167.951C163.279 167.488 163.552 166.948 163.7 166.369C163.848 165.79 163.866 165.185 163.755 164.598C163.643 164.01 163.405 163.454 163.055 162.969C162.705 162.484 162.253 162.082 161.731 161.79L152.886 125.607L146.434 127.666L155.985 163.602C155.553 164.511 155.469 165.547 155.75 166.513C156.031 167.48 156.657 168.31 157.51 168.846C158.362 169.382 159.382 169.587 160.375 169.422C161.369 169.257 162.267 168.734 162.9 167.951H162.9Z" fill="#FFB6B6"/>
<path d="M158.329 144.807L153.613 148.872L147.016 154.556L144.102 139.657L143.798 138.107L143.558 136.878L150.242 125.241L155.815 125.56L156.196 125.583L156.203 125.667L156.291 126.447L157.433 136.718L157.46 136.965L158.329 144.807Z" fill="#B7D2FA"/>
<path d="M127.507 245.942L122.838 245.941L120.616 227.94L127.509 227.94L127.507 245.942Z" fill="#FFB6B6"/>
<path d="M128.698 250.465L113.642 250.465V250.275C113.642 248.721 114.259 247.231 115.358 246.133C116.457 245.035 117.948 244.418 119.502 244.418H119.503L128.699 244.418L128.698 250.465Z" fill="#2F2E41"/>
<path d="M176.261 246.322L171.592 246.322L169.37 228.321L176.262 228.321L176.261 246.322Z" fill="#FFB6B6"/>
<path d="M177.452 250.846L162.395 250.846V250.655C162.395 249.102 163.013 247.612 164.112 246.514C165.211 245.415 166.702 244.798 168.256 244.798H168.256L177.452 244.799L177.452 250.846Z" fill="#2F2E41"/>
<path d="M179.993 239.156L167.424 241.06L149.138 179.208L129.716 241.44L115.623 239.537L133.906 167.21V161.5L136.382 152.934L136.123 150.616L134.321 134.403L133.54 127.372L133.49 126.918C133.447 126.537 133.548 126.154 133.773 125.843C133.998 125.532 134.33 125.316 134.706 125.237L140.572 124.003H150.158L155.815 125.56L156.203 125.667L156.378 125.716L156.291 126.447L154.965 137.555L154.893 138.164L153.613 148.873L153.331 151.221C164.377 159.215 164.758 167.21 164.758 167.21L179.993 239.156Z" fill="#7193C3"/>
<path d="M144.206 119.187C149.373 119.187 153.561 115.001 153.561 109.838C153.561 104.674 149.373 100.488 144.206 100.488C139.04 100.488 134.851 104.674 134.851 109.838C134.851 115.001 139.04 119.187 144.206 119.187Z" fill="#FFB6B6"/>
<path d="M154.032 149.073L135.526 151.492L135.872 154.134L154.378 151.715L154.032 149.073Z" fill="#3F3D56"/>
<path d="M110.703 152.288C110.88 152.403 111.048 152.531 111.205 152.672L129.509 148.008L130.757 143.595L137.668 144.608L136.217 152.635C136.1 153.284 135.775 153.877 135.292 154.325C134.809 154.774 134.193 155.054 133.538 155.123L112.165 157.372C111.817 158.105 111.254 158.715 110.55 159.12C109.847 159.525 109.037 159.706 108.227 159.64C107.418 159.574 106.648 159.263 106.02 158.749C105.392 158.235 104.936 157.542 104.711 156.762C104.487 155.982 104.505 155.152 104.764 154.383C105.023 153.614 105.511 152.942 106.161 152.456C106.811 151.971 107.594 151.694 108.406 151.664C109.217 151.634 110.019 151.852 110.703 152.288Z" fill="#FFB6B6"/>
<path d="M138.858 127.62L135.62 125.145C134.745 124.814 133.545 125.756 133.335 126.668L128.764 145.321L138.286 152.173L139.619 150.079L138.858 127.62Z" fill="#B7D2FA"/>
<g opacity="0.2">
<path d="M157.433 136.718C156.625 137.038 155.802 137.318 154.965 137.555C154.699 137.635 154.424 137.711 154.154 137.784C152.371 138.278 150.54 138.574 148.692 138.667C147.897 138.7 147.1 138.679 146.308 138.602C145.457 138.517 144.617 138.352 143.798 138.107C143.771 138.1 143.74 138.092 143.714 138.084C142.011 137.601 140.449 136.714 139.162 135.5C138.875 135.22 138.606 134.921 138.359 134.605C137.647 133.734 137.126 132.725 136.826 131.642C136.527 130.558 136.458 129.424 136.622 128.313C136.654 128.111 136.697 127.912 136.751 127.715C136.895 127.179 137.085 126.657 137.319 126.154C137.422 125.918 137.536 125.686 137.658 125.458L141.962 124.003H150.158L155.815 125.56L156.196 125.583L156.203 125.667L156.378 125.716L156.291 126.447L157.433 136.718Z" fill="black"/>
</g>
<path d="M137.038 102.097C135.288 101.883 133.369 102.034 132.005 103.151C130.641 104.267 130.201 106.587 131.492 107.786C132.635 108.848 134.423 108.599 135.953 108.9C137.272 109.196 138.454 109.925 139.309 110.971C140.164 112.017 140.643 113.32 140.67 114.67C140.647 118.543 136.928 121.476 136.26 125.291C135.804 127.895 136.903 130.635 138.803 132.474C140.702 134.314 143.314 135.307 145.945 135.577C148.576 135.846 151.236 135.435 153.793 134.759C156.361 134.081 158.889 133.118 161.043 131.566C163.198 130.014 164.964 127.826 165.655 125.263C166.347 122.7 165.851 119.762 164.068 117.794C162.027 115.541 158.631 114.766 156.865 112.291C154.886 109.517 155.619 105.566 154.017 102.559C152.947 100.551 150.922 99.181 148.764 98.4594C146.605 97.7379 144.3 97.5955 142.025 97.5256C140.829 97.4889 139.597 97.4767 138.482 97.9124C137.368 98.3481 136.389 99.3411 136.331 100.535C136.273 101.73 137.038 102.097 137.038 102.097Z" fill="#2F2E41"/>
<path d="M224.619 251H79.5006C79.3996 251 79.3027 250.96 79.2313 250.888C79.1598 250.817 79.1197 250.72 79.1197 250.619C79.1197 250.518 79.1598 250.422 79.2313 250.35C79.3027 250.279 79.3996 250.239 79.5006 250.239H224.619C224.72 250.239 224.817 250.279 224.888 250.35C224.96 250.422 225 250.518 225 250.619C225 250.72 224.96 250.817 224.888 250.888C224.817 250.96 224.72 251 224.619 251Z" fill="#CFE1FB"/>
</g>
<defs>
<clipPath id="clip0_3_15">
<rect width="225" height="251" fill="white"/>
</clipPath>
</defs>
</svg>
